<?xml version="1.0" encoding="utf-8"?>
<!-- Generator: Adobe Illustrator 25.1.0, SVG Export Plug-In . SVG Version: 6.00 Build 0)  -->
<svg version="1.1" id="Layer_1" xmlns="http://www.w3.org/2000/svg" xmlns:xlink="http://www.w3.org/1999/xlink" x="0px" y="0px"
	 viewBox="0 0 288 110.5" style="enable-background:new 0 0 288 110.5;" xml:space="preserve">
<style type="text/css">
	.st0{
		fill:#fff;
		fill-opacity:0;
		stroke:#fff;
		stroke-opacity: 1;
	}
</style>
<g>
	<path class="st0" d="M47,84.3V81c2.7-0.4,5.1-0.5,5.1-3.7c0-2.3-5.5-15.1-6.1-16.7H20.3c-1,2.4-5.8,13.6-5.8,16.9
		c0,2.7,3.5,3.1,5.6,3.5v3.2H0V81c6.1-0.6,7.2-4.5,9.1-9.8c1.7-4.3,3.2-8.7,4.9-13l22.2-57h5l24.5,59.3c0.6,1.3,6.6,16.6,8.8,18.6
		c1.4,1.3,3.2,1.5,5,1.8v3.2H47z M32.8,26.7l-10.5,28h21.5L32.8,26.7z"/>
	<path class="st0" d="M111.1,85.8c-5.5,0-9.4-1.7-13.5-5.4c-3.8,1.4-7,3.1-10.5,5.4h-2.5V26.5c0-2.1-0.1-4.2-0.1-6.3
		c0-2.7,0.2-5.8-0.4-8.5c-0.6-2.5-3-2.5-5.1-2.5V5.8C85.2,5,91.3,2.9,96.9,0h3.1c-0.2,7.4-0.5,14.8-0.5,22.2v17.4
		c4.8-4.9,9.5-9.3,16.8-9.3c13.5,0,18.8,12.9,18.8,24.5C135.1,69.6,128,85.8,111.1,85.8z M107.6,41.4c-3.1,0-5.5,1.1-8.1,2.6v30.7
		c2.3,2.6,5.1,4.3,8.6,4.3c9.1,0,11.3-11.7,11.3-18.6C119.4,53,117,41.4,107.6,41.4z"/>
	<path class="st0" d="M166.4,85.8c-15.4,0-26.8-11.6-26.8-26.9c0-15.6,11.1-28.7,27.2-28.7c15.5,0,26.2,12.3,26.2,27.4
		C192.9,72.8,182.1,85.8,166.4,85.8z M177.6,54.1c-1.4-6.8-5.8-17.9-14.3-17.9c-8,0-9.4,9.2-9.4,15.4c0,3.7,0.4,7.3,1.3,10.8
		c1.5,6.6,6.3,17.4,14.4,17.4c8,0,9.1-8.2,9.1-14.4C178.6,61.6,178.3,57.8,177.6,54.1z"/>
	<path class="st0" d="M236.5,85.8h-2.7V76c-4.6,5.5-8.7,9.8-16.3,9.8c-4.5,0-9.3-1.7-12.3-5.2c-3.5-4.2-3.5-10.2-3.5-15.4V49.3
		c0-1.9,0-7.3-1.1-8.9c-1-1.4-3.5-1.2-4.9-1.2V36c6.2-1.2,12.6-3.2,18.4-6h2.9v2.9c0,4.4-0.4,8.7-0.4,13.1v16.2c0,3-0.2,6.8,1.3,9.5
		c1.4,2.5,4.3,3.7,7.2,3.7c3.8,0,6-1.4,8.7-3.9V49.3c0-1.9,0-7.3-1.1-8.9c-1-1.4-3.5-1.2-4.9-1.2V36c6.2-1.2,12.6-3.2,18.4-6h2.9
		v2.9c0,4.4-0.4,8.7-0.4,13.1v20c0,2.7-0.2,5.8,0.4,8.5c0.6,2.5,2.5,2.4,4.8,2.5l0.1,3.5C247.7,81.4,242.1,83.1,236.5,85.8z"/>
	<path class="st0" d="M273.6,85.1c-3.8,0-7.6-1.5-9.7-4.9c-2.1-3.6-1.9-10.5-1.9-14.5V36.6h-5.7v-2.5c4.9-1.5,7-2.9,10.4-6.8
		c3.3-3.9,4.4-6.6,6-11.4h3.9v16h11v4.8h-11v28.2c0,3.3-0.6,11.7,4.6,11.7c1.9,0,3.3-1.2,4.6-2.4l2.1,2.6
		C284,81,279.9,85.1,273.6,85.1z"/>
</g>
</svg>
