<?xml version="1.0" encoding="utf-8"?>
<!-- Generator: Adobe Illustrator 25.1.0, SVG Export Plug-In . SVG Version: 6.00 Build 0)  -->
<svg version="1.1" id="Layer_1" xmlns="http://www.w3.org/2000/svg" xmlns:xlink="http://www.w3.org/1999/xlink" x="0px" y="0px"
	 viewBox="0 0 354.9 110.5" style="enable-background:new 0 0 354.9 110.5;" xml:space="preserve">
<style type="text/css">
	.st0{fill:#fff;}
</style>
<g>
	<path class="st0" d="M37.1,85.4C14.4,85.4,0,67.3,0,45.5C0,22.4,15.8,3.6,39.7,3.6c7.6,0,14.8,3,22.3,3c1.2,0,2.5-0.1,3.7-0.2
		l0.7,27.3h-3.2c-3.1-11-8-23.8-21.5-23.8C25.9,9.8,19.5,25.4,19.5,39c0,15.7,8.6,36.1,26.9,36.1c8.7,0,15-4.9,20.7-11l2.6,1.9
		C61.4,77.8,52.1,85.4,37.1,85.4z"/>
	<path class="st0" d="M100.6,85.8c-15.4,0-26.8-11.6-26.8-26.9c0-15.6,11.1-28.7,27.2-28.7c15.5,0,26.2,12.3,26.2,27.4
		C127.2,72.8,116.3,85.8,100.6,85.8z M111.8,54.1c-1.4-6.8-5.8-17.9-14.3-17.9c-8,0-9.4,9.2-9.4,15.4c0,3.7,0.4,7.3,1.3,10.8
		c1.5,6.6,6.3,17.4,14.4,17.4c8,0,9.1-8.2,9.1-14.4C112.9,61.6,112.5,57.8,111.8,54.1z"/>
	<path class="st0" d="M162.8,84.3V81c1.8-0.2,4.5-0.6,5.2-2.5c0.6-1.4,0.5-8,0.5-9.8v-17c0-5.4-0.5-11.3-7.4-11.3
		c-3.7,0-6.9,1.7-9.8,3.9v28.5c0,5.6-0.5,7.2,5.7,8.2v3.2h-26.5V81c1.8-0.2,4.4-0.6,5.2-2.5c0.7-1.8,0.6-9.7,0.6-11.9V48.4
		c0-2,0.1-6.2-1-8c-0.8-1.4-2.9-1.2-4.3-1.2V36c5.7-1.2,11.6-3.3,16.7-6h2.6l-0.4,10.5c5.5-5.5,10.7-9.5,18.9-9.5
		c12,0,14.3,8.7,14.3,18.7c0,7.4,0,14.7,0.1,22c0,1.5-0.1,5.4,0.5,6.8c0.8,1.9,3.5,2.1,5.2,2.5v3.2H162.8z"/>
	<path class="st0" d="M206.5,85.1c-3.8,0-7.6-1.5-9.7-4.9c-2.1-3.6-1.9-10.5-1.9-14.5V36.6h-5.7v-2.5c4.9-1.5,7-2.9,10.4-6.8
		s4.4-6.6,6-11.4h3.9v16h11v4.8h-11v28.2c0,3.3-0.6,11.7,4.6,11.7c1.9,0,3.3-1.2,4.6-2.4l2.1,2.6C216.9,81,212.8,85.1,206.5,85.1z"
		/>
	<path class="st0" d="M261.7,84.6c-5.8,0-6.7-4.9-7.2-9.7c-4.8,5.2-9.4,10.1-16.9,10.1c-8,0-13.1-5.8-13.1-13.6
		c0-15.3,17.6-18.7,29.6-20.4v-7.5c0-4.5-0.7-8.8-6.2-8.8c-8.7,0-4.6,8.6-6.7,12.5c-1.2,2.4-5.2,2.4-7.5,2.4c-4.3,0-6.1-0.8-6.1-5.4
		c0-11.4,11-14.1,20.4-14.1c5.8,0,12.4,0.8,16.6,5.4c4.1,4.4,3.5,12.8,3.5,18.2v19.3c0,1.4-0.1,3.8,1.9,3.8c1,0,2-0.7,2.7-1.3
		l1.1,2.6C270.5,81,266.2,84.6,261.7,84.6z M254.1,55.1c-6.2,1.7-13.7,5.1-13.7,12.6c0,4.1,2.5,7,6.7,7c2.7,0,4.9-1.4,7-3V55.1z"/>
	<path class="st0" d="M298.2,85.8c-14.9,0-22.6-12.4-22.6-26.2c0-15.4,8.9-29.3,25.5-29.3c4.5,0,10.4,1,14.1,3.7
		c3.6,2.6,4.3,6.4,4.3,10.6c0,5.6-2.5,6.2-7.6,6.2c-6.2,0-7.2-1.2-7.5-7.3c-0.2-4.1,0-9.3-5.6-9.3c-8,0-10.5,10.4-10.5,16.6
		c0,10.2,4.5,21.6,16.4,21.6c6.3,0,10.4-2.9,14.2-7.6l2.6,1.4C317.1,77.2,311,85.8,298.2,85.8z"/>
	<path class="st0" d="M340.5,85.1c-3.8,0-7.6-1.5-9.7-4.9c-2.1-3.6-1.9-10.5-1.9-14.5V36.6h-5.7v-2.5c4.9-1.5,7-2.9,10.4-6.8
		s4.4-6.6,6-11.4h3.9v16h11v4.8h-11v28.2c0,3.3-0.6,11.7,4.6,11.7c1.9,0,3.3-1.2,4.6-2.4l2.1,2.6C350.8,81,346.8,85.1,340.5,85.1z"
		/>
</g>
</svg>
