<?xml version="1.0" encoding="utf-8"?>
<!-- Generator: Adobe Illustrator 25.1.0, SVG Export Plug-In . SVG Version: 6.00 Build 0)  -->
<svg version="1.1" id="Layer_1" xmlns="http://www.w3.org/2000/svg" xmlns:xlink="http://www.w3.org/1999/xlink" x="0px" y="0px"
	 viewBox="0 0 301.5 110.5" style="enable-background:new 0 0 301.5 110.5;" xml:space="preserve">
<style type="text/css">
	.st0{
		fill:#fff;
		fill-opacity:0;
		stroke:#fff;
		stroke-opacity: 1;
	}
</style>
<g>
	<path class="st0" d="M37.1,85.7C14.4,85.7,0,67.6,0,45.8C0,22.6,15.8,3.8,39.7,3.8c7.6,0,14.8,3,22.3,3c1.2,0,2.5-0.1,3.7-0.2
		l0.7,27.3h-3.2c-3.1-11-8-23.8-21.5-23.8c-15.8,0-22.2,15.6-22.2,29.2c0,15.7,8.6,36.1,26.9,36.1c8.7,0,15-4.9,20.7-11l2.6,1.9
		C61.4,78.1,52.1,85.7,37.1,85.7z"/>
	<path class="st0" d="M104.6,49.7c-3.3,0-5.6-0.1-6.3-3.8c-0.1-1-0.2-2.7-1.5-2.7c-1.5,0-3.5,2.6-4.3,3.7V72c0,7.2-0.2,8.3,7.3,9.3
		v3.2h-28v-3.2c1.8-0.2,4.4-0.6,5.2-2.5c0.7-1.8,0.6-9.7,0.6-11.8V48.6c0-2,0.1-6.2-1-8c-0.8-1.4-2.9-1.2-4.3-1.2v-3.2
		c5.7-1.2,11.6-3.3,16.7-6h2.6l-0.4,13.2c2.9-5.4,6.2-13,13.2-13c6.7,0,6.9,5.1,6.9,10.6C111.4,47.2,111.2,49.7,104.6,49.7z"/>
	<path class="st0" d="M135.9,86c-15,0-22.4-13.2-22.4-26.8c0-14.2,7.4-28.7,23.4-28.7c6.2,0,12.5,2.4,16.4,7.4
		c3.5,4.5,4.2,9.8,4.3,15.3h-31.8c0.2,9.5,5.6,19.4,16.2,19.4c6.4,0,10.5-3.2,14.7-7.6l2.7,1.5C155.3,77.2,148.2,86,135.9,86z
		 M135,35.4c-7.3,0-8.8,7.2-9.3,13.1h17C142.6,43,142.2,35.4,135,35.4z"/>
	<path class="st0" d="M200.3,84.9c-5.8,0-6.7-4.9-7.2-9.7c-4.8,5.2-9.4,10.1-16.9,10.1c-8,0-13.1-5.8-13.1-13.6
		c0-15.3,17.6-18.7,29.6-20.4v-7.5c0-4.5-0.7-8.8-6.2-8.8c-8.7,0-4.6,8.6-6.7,12.5c-1.2,2.4-5.2,2.4-7.5,2.4c-4.3,0-6.1-0.8-6.1-5.4
		c0-11.4,11-14.1,20.4-14.1c5.8,0,12.4,0.8,16.6,5.4c4.1,4.4,3.5,12.8,3.5,18.2v19.3c0,1.4-0.1,3.8,1.9,3.8c1,0,2-0.7,2.7-1.3
		l1.1,2.6C209.1,81.3,204.8,84.9,200.3,84.9z M192.7,55.3C186.5,57,179,60.4,179,67.9c0,4.1,2.5,7,6.7,7c2.7,0,4.9-1.4,7-3V55.3z"/>
	<path class="st0" d="M275,84.5v-3.2c1.8-0.2,4.5-0.6,5.2-2.5c0.7-1.9,0.6-9.5,0.6-11.7V54.2c0-5.1,0.6-13.6-6.8-13.6
		c-3.2,0-6.2,1.7-8.6,3.7V72c0,6-1,8.2,5.7,9.3v3.2h-26.5v-3.2c1.8-0.4,4.4-0.6,5.2-2.5c0.7-1.9,0.6-9.5,0.6-11.8V52.1
		c0-4.8-0.1-11.4-6.7-11.4c-3.3,0-6.2,1.8-8.7,3.7V72c0,6-1,8.2,5.7,9.3v3.2h-26.5v-3.2c1.8-0.2,4.5-0.6,5.2-2.5
		c0.7-1.9,0.6-9.5,0.6-11.8V48.5c0-1.9,0.1-6.2-1-7.9c-0.8-1.4-2.9-1.2-4.3-1.2v-3.2c5.7-1.2,11.6-3.3,16.7-6h2.6L234,40.8
		c5.2-5.4,10-9.5,17.9-9.5c7.2,0,10.4,2.7,12.5,9.5c4.9-5.5,9.9-9.5,17.6-9.5c12.9,0,13.7,11.1,13.7,21.1V72c0,1.4-0.1,5.5,0.5,6.8
		c0.8,1.9,3.5,2.3,5.2,2.5v3.2H275z"/>
</g>
</svg>
