<?xml version="1.0" encoding="utf-8"?>
<!-- Generator: Adobe Illustrator 25.1.0, SVG Export Plug-In . SVG Version: 6.00 Build 0)  -->
<svg version="1.1" id="Layer_1" xmlns="http://www.w3.org/2000/svg" xmlns:xlink="http://www.w3.org/1999/xlink" x="0px" y="0px"
	 viewBox="0 0 904.2 491.1" style="enable-background:new 0 0 904.2 491.1;" xml:space="preserve">
<style type="text/css">
	.st0{fill:#fff;}
</style>
<g>
	<g>
		<path class="st0" d="M165.9,206.1c-57,0-93.3-45.6-93.3-100.5C72.6,47.4,112.5,0,172.5,0c19.2,0,37.2,7.5,56.1,7.5c3,0,6.3-0.3,9.3-0.6
			l1.8,68.7h-8.1c-7.8-27.6-20.1-60-54-60c-39.9,0-55.8,39.3-55.8,73.5c0,39.6,21.6,90.9,67.8,90.9c21.9,0,37.8-12.3,52.2-27.6
			l6.6,4.8C227.1,187,203.7,206.1,165.9,206.1z"/>
		<path class="st0" d="M336,115.6c-8.4,0-14.1-0.3-15.9-9.6c-0.3-2.4-0.6-6.9-3.9-6.9c-3.9,0-8.7,6.6-10.8,9.3v63.2c0,18-0.6,21,18.3,23.4v8.1
			h-70.5V195c4.5-0.6,11.1-1.5,13.2-6.3c1.8-4.5,1.5-24.3,1.5-29.7v-46.2c0-5.1,0.3-15.6-2.4-20.1c-2.1-3.6-7.2-3-10.8-3v-8.1
			c14.4-3,29.1-8.4,42-15h6.6l-0.9,33.3c7.2-13.5,15.6-32.7,33.3-32.7c16.8,0,17.4,12.9,17.4,26.7
			C353.1,109.2,352.5,115.6,336,115.6z"/>
		<path class="st0" d="M414.6,207.1c-37.8,0-56.4-33.3-56.4-67.5c0-35.7,18.6-72.3,58.8-72.3c15.6,0,31.5,6,41.4,18.6
			c8.7,11.4,10.5,24.6,10.8,38.4h-80.1c0.6,24,14.1,48.9,40.8,48.9c16.2,0,26.4-8.1,36.9-19.2l6.9,3.9
			C463.5,184.9,445.8,207.1,414.6,207.1z M412.5,79.5c-18.3,0-22.2,18-23.4,33H432C431.7,98.7,430.5,79.5,412.5,79.5z"/>
		<path class="st0" d="M576.9,204.1c-14.7,0-16.8-12.3-18-24.3c-12,13.2-23.7,25.5-42.6,25.5c-20.1,0-33-14.7-33-34.2
			c0-38.4,44.4-47.1,74.4-51.3v-18.9c0-11.4-1.8-22.2-15.6-22.2c-21.9,0-11.7,21.6-16.8,31.5c-3,6-13.2,6-18.9,6
			c-10.8,0-15.3-2.1-15.3-13.5c0-28.8,27.6-35.4,51.3-35.4c14.7,0,31.2,2.1,41.7,13.5c10.2,11.1,8.7,32.1,8.7,45.9v48.6
			c0,3.6-0.3,9.6,4.8,9.6c2.4,0,5.1-1.8,6.9-3.3l2.7,6.6C599.1,195.1,588.3,204.1,576.9,204.1z M557.7,129.6
			c-15.6,4.2-34.5,12.9-34.5,31.8c0,10.2,6.3,17.7,16.8,17.7c6.9,0,12.3-3.6,17.7-7.5V129.6z"/>
		<path class="st0" d="M765,203.1V195c4.5-0.6,11.4-1.5,13.2-6.3s1.5-24,1.5-29.4v-32.4c0-12.9,1.5-34.2-17.1-34.2c-8.1,0-15.6,4.2-21.6,9.3
			v69.6c0,15-2.4,20.7,14.4,23.4v8.1h-66.6V195c4.5-0.9,11.1-1.5,13.2-6.3c1.8-4.8,1.5-24,1.5-29.7v-37.4c0-12-0.3-28.8-16.8-28.8
			c-8.4,0-15.6,4.5-21.9,9.3v69.5c0,15-2.4,20.7,14.4,23.4v8.1h-66.6V195c4.5-0.6,11.4-1.5,13.2-6.3s1.5-24,1.5-29.7v-46.4
			c0-4.8,0.3-15.6-2.4-19.8c-2.1-3.6-7.2-3-10.8-3v-8.2c14.4-3,29.1-8.4,42-15h6.6L661.8,93c13.2-13.5,25.2-24,45-24
			c18,0,26.1,6.9,31.5,24c12.3-13.8,24.9-24,44.4-24c32.4,0,34.5,27.9,34.5,53.1v49.5c0,3.6-0.3,13.8,1.2,17.1
			c2.1,4.8,8.7,5.7,13.2,6.3v8.1H765z"/>
	</g>
	<g>
		<path class="st0" d="M80.4,341.4c-5.1,0-9.9-0.6-15-0.9v58.2c0,15.3,3.9,17.1,18.6,18.3v8.1H0V417c17.4-1.2,18.3-5.7,18.3-21.3V247.8
			c0-12.6-7.8-13.5-18.3-14.7V225h90.9c16.2,0,34.8,1.2,48.3,11.4c12.3,9.3,16.8,26.1,16.8,40.8C156,322.8,122.1,341.4,80.4,341.4z
			 M73.5,238.2c-3,0-5.1,0.3-8.1,0.9v89.5c3,0.3,6,0.6,9,0.6c26.1,0,32.4-24.3,32.4-45.9C106.8,261,99.6,238.2,73.5,238.2z"/>
		<path class="st0" d="M244.5,337.6c-8.4,0-14.1-0.3-15.9-9.6c-0.3-2.4-0.6-6.9-3.9-6.9c-3.9,0-8.7,6.6-10.8,9.3v63.2c0,18-0.6,21,18.3,23.4v8.1
			h-70.5V417c4.5-0.6,11.1-1.5,13.2-6.3c1.8-4.5,1.5-24.3,1.5-29.7v-46.2c0-5.1,0.3-15.6-2.4-20.1c-2.1-3.6-7.2-3-10.8-3v-8.1
			c14.4-3,29.1-8.4,42-15h6.6l-0.9,33.3c7.2-13.5,15.6-32.7,33.3-32.7c16.8,0,17.4,12.9,17.4,26.7
			C261.6,331.2,261,337.6,244.5,337.6z"/>
		<path class="st0" d="M333.9,429.1c-38.7,0-67.5-29.1-67.5-67.8c0-39.3,27.9-72.3,68.4-72.3c39,0,66,30.9,66,69
			C400.8,396.3,373.5,429.1,333.9,429.1z M362.1,349.2c-3.6-17.1-14.7-45-36-45c-20.1,0-23.7,23.1-23.7,38.7
			c0,9.3,0.9,18.3,3.3,27.3c3.9,16.5,15.9,43.8,36.3,43.8c20.1,0,22.8-20.7,22.8-36.3C364.8,368.1,363.9,358.6,362.1,349.2z"/>
		<path class="st0" d="M458.7,328.8c0,24.9,0,50.1,0,75c0,17.1,0,36-3.9,52.8c-4.5,19.2-18.9,34.5-39.6,34.5c-15.6,0-24-5.7-24-21.9
			c0-10.8,1.2-15,12.9-15c15.9,0,13.2,7.2,13.2,19.2c0,2.1,0.6,5.4,3.3,5.4c6.3,0,7.2-7.2,7.2-12c0-9-2.7-18-4.2-26.7
			c-2.1-12.9-2.4-25.2-2.4-38.1v-64.8c0-4.8,0-18.3-2.7-22.5c-2.4-3.6-8.7-3-12.3-3v-8.1c15.6-3,31.8-8.1,46.2-15h7.2v7.2
			C459.6,306.9,458.7,317.7,458.7,328.8z M439.5,279.1c-12.9,0-20.7-8.7-20.7-21.3c0-13.2,8.4-25.2,22.5-25.2
			c12.6,0,19.8,10.5,19.8,22.2C461.1,267.7,453.3,279.1,439.5,279.1z"/>
		<path class="st0" d="M534.6,429.1c-37.8,0-56.4-33.3-56.4-67.5c0-35.7,18.6-72.3,58.8-72.3c15.6,0,31.5,6,41.4,18.6
			c8.7,11.4,10.5,24.6,10.8,38.4h-80.1c0.6,24,14.1,48.9,40.8,48.9c16.2,0,26.4-8.1,36.9-19.2l6.9,3.9
			C583.5,406.9,565.8,429.1,534.6,429.1z M532.5,301.5c-18.3,0-22.2,18-23.4,33H552C551.7,320.7,550.5,301.5,532.5,301.5z"/>
		<path class="st0" d="M660.9,429.1c-37.5,0-57-31.2-57-66c0-38.7,22.5-73.8,64.2-73.8c11.4,0,26.1,2.4,35.4,9.3c9,6.6,10.8,16.2,10.8,26.7
			c0,14.1-6.3,15.6-19.2,15.6c-15.6,0-18-3-18.9-18.3c-0.6-10.2,0-23.4-14.1-23.4c-20.1,0-26.4,26.1-26.4,41.7
			c0,25.8,11.4,54.3,41.4,54.3c15.9,0,26.1-7.2,35.7-19.2l6.6,3.6C708.6,407.5,693.3,429.1,660.9,429.1z"/>
		<path class="st0" d="M767.4,427.2c-9.6,0-19.2-3.9-24.3-12.3c-5.4-9-4.8-26.4-4.8-36.6v-73.2h-14.4v-6.3c12.3-3.9,17.7-7.2,26.1-17.1
			s11.1-16.5,15-28.8h9.9v40.2h27.6v12h-27.6v71.1c0,8.4-1.5,29.4,11.7,29.4c4.8,0,8.4-3,11.7-6l5.4,6.6
			C793.5,417.1,783.3,427.2,767.4,427.2z"/>
		<path class="st0" d="M860.1,429.1c-10.5,0-19.8-2.7-30-5.4c-5.4-1.5-11.1-2.1-16.8-2.4l0.9-43.5h8.1c4.8,21,18.3,35.7,40.5,35.7
			c9.3,0,18.9-4.2,18.9-15c0-26.7-68.4-23.7-68.4-69.3c0-24.6,19.5-39.9,43.2-39.9c11.4,0,22.5,3.6,33.9,3.6c2.1,0,4.5,0,6.6-0.6
			l2.1,34.5h-7.8c-4.8-14.7-15-27.3-31.8-27.3c-9.3,0-18.9,4.2-18.9,14.7c0,8.4,8.4,13.5,15,17.1l22.5,12
			c17.7,9.3,26.1,20.1,26.1,40.5C904.2,410.5,887.4,429.1,860.1,429.1z"/>
	</g>
</g>
</svg>
