<?xml version="1.0" encoding="utf-8"?>
<!-- Generator: Adobe Illustrator 25.1.0, SVG Export Plug-In . SVG Version: 6.00 Build 0)  -->
<svg version="1.1" id="Layer_1" xmlns="http://www.w3.org/2000/svg" xmlns:xlink="http://www.w3.org/1999/xlink" x="0px" y="0px"
	 viewBox="0 0 359.8 110.5" style="enable-background:new 0 0 359.8 110.5;" xml:space="preserve">
<style type="text/css">
	.st0{
		fill:#fff;
	}

</style>
<g>
	<path class="st0" d="M31.9,51c-2,0-3.9-0.2-6-0.4v23.1c0,6.1,1.5,6.8,7.4,7.3v3.2H0V81c6.9-0.5,7.3-2.3,7.3-8.5V13.8
		c0-5-3.1-5.4-7.3-5.8V4.8h36.1c6.4,0,13.8,0.5,19.2,4.5C60.2,13,62,19.7,62,25.5C62,43.6,48.5,51,31.9,51z M29.2,10
		c-1.2,0-2,0.1-3.2,0.4v35.5c1.2,0.1,2.4,0.2,3.6,0.2c10.4,0,12.9-9.7,12.9-18.2C42.4,19.1,39.6,10,29.2,10z"/>
	<path class="st0" d="M97.1,49.5c-3.3,0-5.6-0.1-6.3-3.8c-0.1-1-0.2-2.7-1.5-2.7c-1.5,0-3.5,2.6-4.3,3.7v25.1c0,7.2-0.2,8.3,7.3,9.3
		v3.2h-28V81c1.8-0.2,4.4-0.6,5.2-2.5c0.7-1.8,0.6-9.7,0.6-11.8V48.4c0-2,0.1-6.2-1-8c-0.8-1.4-2.9-1.2-4.3-1.2V36
		c5.7-1.2,11.6-3.3,16.7-6h2.6l-0.4,13.2c2.9-5.4,6.2-13,13.2-13c6.7,0,6.9,5.1,6.9,10.6C103.9,47,103.7,49.5,97.1,49.5z"/>
	<path class="st0" d="M132.6,85.8c-15.4,0-26.8-11.6-26.8-26.9c0-15.6,11.1-28.7,27.2-28.7c15.5,0,26.2,12.3,26.2,27.4
		C159.2,72.8,148.4,85.8,132.6,85.8z M143.8,54.1c-1.4-6.8-5.8-17.9-14.3-17.9c-8,0-9.4,9.2-9.4,15.4c0,3.7,0.4,7.3,1.3,10.8
		c1.5,6.6,6.3,17.4,14.4,17.4c8,0,9.1-8.2,9.1-14.4C144.9,61.6,144.6,57.8,143.8,54.1z"/>
	<path class="st0" d="M183.4,46c0,9.9,0,19.9,0,29.8c0,6.8,0,14.3-1.5,21c-1.8,7.6-7.5,13.7-15.7,13.7c-6.2,0-9.5-2.3-9.5-8.7
		c0-4.3,0.5-6,5.1-6c6.3,0,5.2,2.9,5.2,7.6c0,0.8,0.2,2.1,1.3,2.1c2.5,0,2.9-2.9,2.9-4.8c0-3.6-1.1-7.2-1.7-10.6
		c-0.8-5.1-1-10-1-15.1V49.3c0-1.9,0-7.3-1.1-8.9c-1-1.4-3.5-1.2-4.9-1.2V36c6.2-1.2,12.6-3.2,18.4-6h2.9v2.9
		C183.8,37.3,183.4,41.6,183.4,46z M175.8,22.3c-5.1,0-8.2-3.5-8.2-8.5c0-5.2,3.3-10,8.9-10c5,0,7.9,4.2,7.9,8.8
		C184.4,17.8,181.3,22.3,175.8,22.3z"/>
	<path class="st0" d="M214.1,85.8c-15,0-22.4-13.2-22.4-26.8c0-14.2,7.4-28.7,23.4-28.7c6.2,0,12.5,2.4,16.4,7.4
		c3.5,4.5,4.2,9.8,4.3,15.3H204c0.2,9.5,5.6,19.4,16.2,19.4c6.4,0,10.5-3.2,14.7-7.6l2.7,1.5C233.6,77,226.5,85.8,214.1,85.8z
		 M213.3,35.2c-7.3,0-8.8,7.2-9.3,13.1h17C220.9,42.8,220.5,35.2,213.3,35.2z"/>
	<path class="st0" d="M264.3,85.8c-14.9,0-22.6-12.4-22.6-26.2c0-15.4,8.9-29.3,25.5-29.3c4.5,0,10.4,1,14.1,3.7
		c3.6,2.6,4.3,6.4,4.3,10.6c0,5.6-2.5,6.2-7.6,6.2c-6.2,0-7.2-1.2-7.5-7.3c-0.2-4.1,0-9.3-5.6-9.3c-8,0-10.5,10.4-10.5,16.6
		c0,10.2,4.5,21.6,16.4,21.6c6.3,0,10.4-2.9,14.2-7.6l2.6,1.4C283.3,77.2,277.2,85.8,264.3,85.8z"/>
	<path class="st0" d="M306.6,85.1c-3.8,0-7.6-1.5-9.7-4.9c-2.1-3.6-1.9-10.5-1.9-14.5V36.6h-5.7v-2.5c4.9-1.5,7-2.9,10.4-6.8
		c3.3-3.9,4.4-6.6,6-11.4h3.9v16h11v4.8h-11v28.2c0,3.3-0.6,11.7,4.6,11.7c1.9,0,3.3-1.2,4.6-2.4l2.1,2.6
		C317,81,312.9,85.1,306.6,85.1z"/>
	<path class="st0" d="M342.2,85.8c-4.2,0-7.9-1.1-11.9-2.1c-2.1-0.6-4.4-0.8-6.7-1l0.4-17.3h3.2c1.9,8.3,7.3,14.2,16.1,14.2
		c3.7,0,7.5-1.7,7.5-6c0-10.6-27.2-9.4-27.2-27.5c0-9.8,7.7-15.8,17.2-15.8c4.5,0,8.9,1.4,13.5,1.4c0.8,0,1.8,0,2.6-0.2l0.8,13.7
		h-3.1c-1.9-5.8-6-10.8-12.6-10.8c-3.7,0-7.5,1.7-7.5,5.8c0,3.3,3.3,5.4,6,6.8l8.9,4.8c7,3.7,10.4,8,10.4,16.1
		C359.8,78.4,353.1,85.8,342.2,85.8z"/>
</g>
</svg>
