<?xml version="1.0" encoding="utf-8"?>
<!-- Generator: Adobe Illustrator 24.1.0, SVG Export Plug-In . SVG Version: 6.00 Build 0)  -->
<svg version="1.1" id="Layer_1" xmlns="http://www.w3.org/2000/svg" xmlns:xlink="http://www.w3.org/1999/xlink" x="0px" y="0px"
	 viewBox="0 0 840 400" style="enable-background:new 0 0 840 400;" xml:space="preserve">
<style type="text/css">
	.st0{fill:#FFFFFF;}
</style>
<g>
	<path class="st0" d="M269.4,261.3v-5c4.3-0.6,8-0.7,8-5.7c0-3.5-8.5-23.5-9.4-25.9h-40c-1.5,3.7-9.1,21.1-9.1,26.3
		c0,4.3,5.4,4.8,8.7,5.4v5h-31.1v-5c9.4-0.9,11.1-7,14.1-15.2c2.6-6.7,5-13.5,7.6-20.2l34.4-88.5h7.8l38.1,92.2
		c0.9,2,10.2,25.7,13.7,28.9c2.2,2,5,2.4,7.8,2.8v5h-50.6V261.3z M247.4,171.9l-16.3,43.5h33.3L247.4,171.9z"/>
	<path class="st0" d="M368.9,263.7c-8.5,0-14.6-2.6-20.9-8.3c-5.9,2.2-10.9,4.8-16.3,8.3h-3.9v-92.2c0-3.3-0.2-6.5-0.2-9.8
		c0-4.3,0.4-9.1-0.6-13.1c-0.9-3.9-4.6-3.9-8-3.9v-5.2c9.6-1.3,19.1-4.6,27.8-9.1h4.8c-0.4,11.5-0.7,22.9-0.7,34.4v27
		c7.4-7.6,14.8-14.4,26.1-14.4c20.9,0,29.2,20,29.2,38.1C406.3,238.6,395.2,263.7,368.9,263.7z M363.6,194.7
		c-4.8,0-8.5,1.7-12.6,4.1v47.7c3.5,4.1,8,6.7,13.3,6.7c14.1,0,17.6-18.1,17.6-28.9C381.9,212.8,378.2,194.7,363.6,194.7z"/>
	<path class="st0" d="M454.8,263.7c-23.9,0-41.6-17.9-41.6-41.8c0-24.2,17.2-44.6,42.2-44.6c24.1,0,40.7,19.1,40.7,42.6
		C496.1,243.5,479.2,263.7,454.8,263.7z M472.2,214.5c-2.2-10.5-9.1-27.8-22.2-27.8c-12.4,0-14.6,14.2-14.6,23.9
		c0,5.7,0.6,11.3,2,16.8c2.4,10.2,9.8,27,22.4,27c12.4,0,14.1-12.8,14.1-22.4C473.9,226.2,473.3,220.2,472.2,214.5z"/>
	<path class="st0" d="M563.8,263.7h-4.3v-15.2c-7.2,8.5-13.5,15.2-25.4,15.2c-7,0-14.4-2.6-19.1-8.1c-5.4-6.5-5.4-15.9-5.4-23.9
		v-24.6c0-3,0-11.3-1.7-13.9c-1.5-2.2-5.4-1.9-7.6-1.9v-5c9.6-1.9,19.6-5,28.5-9.3h4.4v4.4c0,6.8-0.6,13.5-0.6,20.4v25.3
		c0,4.6-0.4,10.5,2,14.8c2.2,3.9,6.7,5.7,11.1,5.7c5.9,0,9.3-2.2,13.5-6.1v-34.4c0-3,0-11.3-1.7-13.9c-1.5-2.2-5.4-1.9-7.6-1.9v-5
		c9.6-1.9,19.6-5,28.5-9.3h4.4v4.4c0,6.8-0.6,13.5-0.6,20.4v31.1c0,4.3-0.4,9.1,0.6,13.1c0.9,3.9,3.9,3.7,7.4,3.9l0.2,5.4
		C581.2,256.9,572.5,259.5,563.8,263.7z"/>
	<path class="st0" d="M621.3,262.6c-5.9,0-11.8-2.4-15-7.6c-3.3-5.6-3-16.3-3-22.6v-45.2h-8.9v-3.9c7.6-2.4,10.9-4.4,16.1-10.5
		s6.8-10.2,9.3-17.8h6.1v24.8h17v7.4h-17v43.9c0,5.2-0.9,18.1,7.2,18.1c3,0,5.2-1.9,7.2-3.7l3.3,4.1
		C637.4,256.3,631.1,262.6,621.3,262.6z"/>
</g>
</svg>
