<?xml version="1.0" encoding="utf-8"?>
<!-- Generator: Adobe Illustrator 24.1.0, SVG Export Plug-In . SVG Version: 6.00 Build 0)  -->
<svg version="1.1" id="Layer_1" xmlns="http://www.w3.org/2000/svg" xmlns:xlink="http://www.w3.org/1999/xlink" x="0px" y="0px"
	 viewBox="0 0 840 400" style="enable-background:new 0 0 840 400;" xml:space="preserve">
<style type="text/css">
	.st0{fill:#FFFFFF;}
</style>
<g>
	<path class="st0" d="M202,263.3c-35.2,0-57.6-28.1-57.6-62c0-35.9,24.6-65.1,61.6-65.1c11.8,0,22.9,4.6,34.6,4.6
		c1.9,0,3.9-0.2,5.7-0.4l1.1,42.4h-5c-4.8-17-12.4-37-33.3-37c-24.6,0-34.4,24.2-34.4,45.3c0,24.4,13.3,56.1,41.8,56.1
		c13.5,0,23.3-7.6,32.2-17l4.1,3C239.8,251.4,225.3,263.3,202,263.3z"/>
	<path class="st0" d="M300.6,263.8c-23.9,0-41.6-17.9-41.6-41.8c0-24.2,17.2-44.6,42.2-44.6c24.1,0,40.7,19.1,40.7,42.6
		C341.9,243.7,325.1,263.8,300.6,263.8z M318,214.6c-2.2-10.5-9.1-27.8-22.2-27.8c-12.4,0-14.6,14.2-14.6,23.9
		c0,5.7,0.6,11.3,2,16.8c2.4,10.2,9.8,27,22.4,27c12.4,0,14.1-12.8,14.1-22.4C319.7,226.3,319.2,220.4,318,214.6z"/>
	<path class="st0" d="M397.2,261.4v-5c2.8-0.4,7-0.9,8.1-3.9c0.9-2.2,0.7-12.4,0.7-15.2v-26.5c0-8.3-0.7-17.6-11.5-17.6
		c-5.7,0-10.7,2.6-15.2,6.1v44.2c0,8.7-0.7,11.1,8.9,12.8v5h-41.1v-5c2.8-0.4,6.8-0.9,8.1-3.9c1.1-2.8,0.9-15,0.9-18.5v-28.3
		c0-3.1,0.2-9.6-1.5-12.4c-1.3-2.2-4.4-1.9-6.7-1.9v-5c8.9-1.9,18-5.2,25.9-9.3h4.1l-0.6,16.3c8.5-8.5,16.7-14.8,29.4-14.8
		c18.7,0,22.2,13.5,22.2,29.1c0,11.5,0,22.8,0.2,34.2c0,2.4-0.2,8.3,0.7,10.5c1.3,3,5.4,3.3,8.1,3.9v5H397.2z"/>
	<path class="st0" d="M465.2,262.7c-5.9,0-11.8-2.4-15-7.6c-3.3-5.6-3-16.3-3-22.6v-45.2h-8.9v-3.9c7.6-2.4,10.9-4.4,16.1-10.5
		c5.2-6.1,6.8-10.2,9.3-17.8h6.1V180h17v7.4h-17v43.9c0,5.2-0.9,18.1,7.2,18.1c3,0,5.2-1.9,7.2-3.7l3.3,4.1
		C481.3,256.4,475,262.7,465.2,262.7z"/>
	<path class="st0" d="M550.8,262c-9.1,0-10.4-7.6-11.1-15c-7.4,8.1-14.6,15.7-26.3,15.7c-12.4,0-20.4-9.1-20.4-21.1
		c0-23.7,27.4-29.1,45.9-31.6v-11.7c0-7-1.1-13.7-9.6-13.7c-13.5,0-7.2,13.3-10.4,19.4c-1.9,3.7-8.1,3.7-11.7,3.7
		c-6.7,0-9.4-1.3-9.4-8.3c0-17.8,17-21.8,31.6-21.8c9.1,0,19.2,1.3,25.7,8.3c6.3,6.8,5.4,19.8,5.4,28.3v30c0,2.2-0.2,5.9,3,5.9
		c1.5,0,3.1-1.1,4.3-2l1.7,4.1C564.5,256.4,557.9,262,550.8,262z M539,216.1c-9.6,2.6-21.3,8-21.3,19.6c0,6.3,3.9,10.9,10.4,10.9
		c4.3,0,7.6-2.2,10.9-4.6V216.1z"/>
	<path class="st0" d="M607.5,263.8c-23.1,0-35.2-19.2-35.2-40.7c0-23.9,13.9-45.5,39.6-45.5c7,0,16.1,1.5,21.8,5.7
		c5.6,4.1,6.7,10,6.7,16.5c0,8.7-3.9,9.6-11.8,9.6c-9.6,0-11.1-1.9-11.7-11.3c-0.4-6.3,0-14.4-8.7-14.4c-12.4,0-16.3,16.1-16.3,25.7
		c0,15.9,7,33.5,25.5,33.5c9.8,0,16.1-4.4,22-11.8l4.1,2.2C636.9,250.5,627.4,263.8,607.5,263.8z"/>
	<path class="st0" d="M673.1,262.7c-5.9,0-11.8-2.4-15-7.6c-3.3-5.6-3-16.3-3-22.6v-45.2h-8.9v-3.9c7.6-2.4,10.9-4.4,16.1-10.5
		c5.2-6.1,6.8-10.2,9.3-17.8h6.1V180h17v7.4h-17v43.9c0,5.2-0.9,18.1,7.2,18.1c3,0,5.2-1.9,7.2-3.7l3.3,4.1
		C689.2,256.4,683,262.7,673.1,262.7z"/>
</g>
</svg>
