<?xml version="1.0" encoding="utf-8"?>
<!-- Generator: Adobe Illustrator 24.1.0, SVG Export Plug-In . SVG Version: 6.00 Build 0)  -->
<svg version="1.1" id="Layer_1" xmlns="http://www.w3.org/2000/svg" xmlns:xlink="http://www.w3.org/1999/xlink" x="0px" y="0px"
	 viewBox="0 0 840 400" style="enable-background:new 0 0 840 400;" xml:space="preserve">
<style type="text/css">
	.st0{fill:#FFFFFF;}
</style>
<g>
	<path class="st0" d="M243.6,263.4c-35.2,0-57.6-28.1-57.6-62c0-35.9,24.6-65.1,61.6-65.1c11.8,0,22.9,4.6,34.6,4.6
		c1.9,0,3.9-0.2,5.7-0.4l1.1,42.4h-5c-4.8-17-12.4-37-33.3-37c-24.6,0-34.4,24.2-34.4,45.3c0,24.4,13.3,56.1,41.8,56.1
		c13.5,0,23.3-7.6,32.2-17l4.1,3C281.3,251.5,266.9,263.4,243.6,263.4z"/>
	<path class="st0" d="M348.5,207.5c-5.2,0-8.7-0.2-9.8-5.9c-0.2-1.5-0.4-4.3-2.4-4.3c-2.4,0-5.4,4.1-6.7,5.7v39
		c0,11.1-0.4,13,11.3,14.4v5h-43.5v-5c2.8-0.4,6.8-0.9,8.1-3.9c1.1-2.8,0.9-15,0.9-18.3v-28.5c0-3.1,0.2-9.6-1.5-12.4
		c-1.3-2.2-4.4-1.9-6.7-1.9v-5c8.9-1.9,18-5.2,25.9-9.3h4.1l-0.6,20.5c4.4-8.3,9.6-20.2,20.5-20.2c10.4,0,10.7,8,10.7,16.5
		C359,203.6,358.7,207.5,348.5,207.5z"/>
	<path class="st0" d="M397,263.9c-23.3,0-34.8-20.5-34.8-41.6c0-22,11.5-44.6,36.3-44.6c9.6,0,19.4,3.7,25.5,11.5
		c5.4,7,6.5,15.2,6.7,23.7h-49.4c0.4,14.8,8.7,30.2,25.2,30.2c10,0,16.3-5,22.8-11.8l4.3,2.4C427.1,250.2,416.2,263.9,397,263.9z
		 M395.7,185.3c-11.3,0-13.7,11.1-14.4,20.4h26.5C407.5,197.1,406.8,185.3,395.7,185.3z"/>
	<path class="st0" d="M497.1,262.1c-9.1,0-10.4-7.6-11.1-15c-7.4,8.1-14.6,15.7-26.3,15.7c-12.4,0-20.4-9.1-20.4-21.1
		c0-23.7,27.4-29.1,45.9-31.6v-11.7c0-7-1.1-13.7-9.6-13.7c-13.5,0-7.2,13.3-10.4,19.4c-1.9,3.7-8.1,3.7-11.7,3.7
		c-6.7,0-9.4-1.3-9.4-8.3c0-17.8,17-21.8,31.6-21.8c9.1,0,19.2,1.3,25.7,8.3c6.3,6.8,5.4,19.8,5.4,28.3v30c0,2.2-0.2,5.9,3,5.9
		c1.5,0,3.1-1.1,4.3-2l1.7,4.1C510.8,256.5,504.1,262.1,497.1,262.1z M485.2,216.2c-9.6,2.6-21.3,8-21.3,19.6
		c0,6.3,3.9,10.9,10.4,10.9c4.3,0,7.6-2.2,10.9-4.6V216.2z"/>
	<path class="st0" d="M613.1,261.5v-5c2.8-0.4,7-0.9,8.1-3.9s0.9-14.8,0.9-18.1v-20c0-8,0.9-21.1-10.5-21.1c-5,0-9.6,2.6-13.3,5.7
		v43c0,9.3-1.5,12.8,8.9,14.4v5h-41.1v-5c2.8-0.6,6.8-0.9,8.1-3.9c1.1-3,0.9-14.8,0.9-18.3v-23.1c0-7.4-0.2-17.8-10.4-17.8
		c-5.2,0-9.6,2.8-13.5,5.7v43c0,9.3-1.5,12.8,8.9,14.4v5h-41v-5c2.8-0.4,7-0.9,8.1-3.9s0.9-14.8,0.9-18.3v-28.7
		c0-3,0.2-9.6-1.5-12.2c-1.3-2.2-4.4-1.9-6.7-1.9v-5c8.9-1.9,18-5.2,25.9-9.3h4.1l-0.6,16.3c8.1-8.3,15.5-14.8,27.8-14.8
		c11.1,0,16.1,4.3,19.4,14.8c7.6-8.5,15.4-14.8,27.4-14.8c20,0,21.3,17.2,21.3,32.8v30.6c0,2.2-0.2,8.5,0.7,10.5
		c1.3,3,5.4,3.5,8.1,3.9v5H613.1z"/>
</g>
</svg>
