<?xml version="1.0" encoding="utf-8"?>
<!-- Generator: Adobe Illustrator 24.1.0, SVG Export Plug-In . SVG Version: 6.00 Build 0)  -->
<svg version="1.1" id="Layer_1" xmlns="http://www.w3.org/2000/svg" xmlns:xlink="http://www.w3.org/1999/xlink" x="0px" y="0px"
	 viewBox="0 0 840 400" style="enable-background:new 0 0 840 400;" xml:space="preserve">
<style type="text/css">
	.st0{fill:#FFFFFF;}
</style>
<g>
	<path class="st0" d="M384.2,145.5c-5,3.3-10.4,21.8-12.2,27.2l-30.2,91.2h-10.7l-20.5-68.5l-23.3,68.5h-10.7L244,166.6
		c-1.9-5.6-3.5-11.8-6.5-17c-2.4-4.4-5.2-5.6-10-6.5v-5h49v5c-3.9,0.9-8.1,2-8.1,6.7c0,3,2.4,9.6,3.3,12.4l19.6,61.1l14.8-43.5
		l-5.7-19.1c-2.8-8.9-4.1-16.1-14.6-17.6v-5h50v5c-3.5,0.4-10.2,0.4-10.2,5.2c0,4.3,3,12.8,4.1,16.8l15.9,58.1l18.5-58.1
		c1.5-4.6,3.9-10.5,3.9-15.4c0-5.4-5.4-5.9-9.6-6.5V138H391v5.2C388.5,143.6,386.4,144,384.2,145.5z"/>
	<path class="st0" d="M414.2,263.9c-23.9,0-41.6-17.9-41.6-41.8c0-24.2,17.2-44.6,42.2-44.6c24.1,0,40.7,19.1,40.7,42.6
		C455.4,243.7,438.6,263.9,414.2,263.9z M431.6,214.7c-2.2-10.5-9.1-27.8-22.2-27.8c-12.4,0-14.6,14.2-14.6,23.9
		c0,5.7,0.6,11.3,2,16.8c2.4,10.2,9.8,27,22.4,27c12.4,0,14.1-12.8,14.1-22.4C433.2,226.4,432.7,220.4,431.6,214.7z"/>
	<path class="st0" d="M511,207.5c-5.2,0-8.7-0.2-9.8-5.9c-0.2-1.5-0.4-4.3-2.4-4.3c-2.4,0-5.4,4.1-6.7,5.7v39
		c0,11.1-0.4,13,11.3,14.4v5h-43.5v-5c2.8-0.4,6.8-0.9,8.1-3.9c1.1-2.8,0.9-15,0.9-18.3v-28.5c0-3.1,0.2-9.6-1.5-12.4
		c-1.3-2.2-4.4-1.9-6.7-1.9v-5c8.9-1.9,18-5.2,25.9-9.3h4.1l-0.6,20.5c4.4-8.3,9.6-20.2,20.5-20.2c10.4,0,10.7,8,10.7,16.5
		C521.5,203.6,521.1,207.5,511,207.5z"/>
	<path class="st0" d="M572,261.5v-5c2,0,5.2-0.2,5.2-3c0-2.4-5.2-9.1-6.5-10.9L554.8,220v23.5c0,8.9-0.7,11.3,8.9,13v5h-41.1v-5
		c2.8-0.4,6.8-0.9,8.1-3.9c1.1-3,0.9-15,0.9-18.5v-62.9c0-3.1-0.2-6.1-0.2-9.3c0-4.3,0.4-8.9-0.6-13.1c-0.7-3.9-4.6-3.7-8-3.9v-5.2
		c9.8-1.3,19.1-4.6,27.8-9.1h4.8c-0.4,10-0.7,20.2-0.7,30.2v57.4l14.8-16.5c2.2-2.6,10-10.5,10-13.5c0-2.8-3.9-3.1-5.9-3.1v-5H608v5
		c-10,0.9-15,5-21.8,12l-12.6,12.8l26.1,35.9c3.3,4.6,7,9.4,12.8,10.7v5L572,261.5L572,261.5z"/>
</g>
</svg>
